<mxfile host="app.diagrams.net" modified="2023-05-07T06:21:28.088Z" agent="Mozilla/5.0 (Windows NT 10.0; WOW64) AppleWebKit/537.36 (KHTML, like Gecko) Chrome/94.0.4606.71 Safari/537.36 Core/1.94.192.400 QQBrowser/11.5.5250.400" etag="iEtxkY1iAO6uVuGS_Idw" version="21.2.1" type="github">
  <diagram name="第 1 页" id="BLIW2Dazal--iEBdxD1L">
    <mxGraphModel dx="1111" dy="586" grid="1" gridSize="10" guides="1" tooltips="1" connect="1" arrows="1" fold="1" page="1" pageScale="1" pageWidth="827" pageHeight="1169" math="0" shadow="0">
      <root>
        <mxCell id="0" />
        <mxCell id="1" parent="0" />
        <mxCell id="xN9V8h1uKTJLU0mm6n82-1" value="concat&amp;nbsp; &amp;nbsp; &amp;nbsp; &amp;nbsp; &amp;nbsp; &amp;nbsp; &amp;nbsp; &amp;nbsp; &amp;nbsp; &amp;nbsp; &amp;nbsp; &amp;nbsp; &amp;nbsp; &amp;nbsp; &amp;nbsp; &amp;nbsp; &amp;nbsp; &amp;nbsp; &amp;nbsp; &amp;nbsp;" style="rounded=1;whiteSpace=wrap;html=1;fillColor=none;" vertex="1" parent="1">
          <mxGeometry x="130" y="230" width="180" height="50" as="geometry" />
        </mxCell>
        <mxCell id="xN9V8h1uKTJLU0mm6n82-2" value="Linear + ReLu" style="rounded=0;whiteSpace=wrap;html=1;fillColor=#dae8fc;strokeColor=#6c8ebf;" vertex="1" parent="1">
          <mxGeometry x="120" y="430" width="110" height="30" as="geometry" />
        </mxCell>
        <mxCell id="xN9V8h1uKTJLU0mm6n82-3" value="Linear + ReLu" style="rounded=0;whiteSpace=wrap;html=1;fillColor=#fff2cc;strokeColor=#d6b656;" vertex="1" parent="1">
          <mxGeometry x="410" y="430" width="110" height="30" as="geometry" />
        </mxCell>
        <mxCell id="xN9V8h1uKTJLU0mm6n82-4" value="Linear + ReLu" style="rounded=0;whiteSpace=wrap;html=1;fillColor=#7EA6E0;strokeColor=#6c8ebf;" vertex="1" parent="1">
          <mxGeometry x="250" y="430" width="110" height="30" as="geometry" />
        </mxCell>
        <mxCell id="xN9V8h1uKTJLU0mm6n82-5" value="Linear + ReLu" style="rounded=0;whiteSpace=wrap;html=1;fillColor=#FFD966;strokeColor=#d6b656;" vertex="1" parent="1">
          <mxGeometry x="540" y="430" width="110" height="30" as="geometry" />
        </mxCell>
        <mxCell id="xN9V8h1uKTJLU0mm6n82-6" value="&lt;font style=&quot;font-size: 15px;&quot;&gt;Item embedding&lt;/font&gt;" style="rounded=0;whiteSpace=wrap;html=1;" vertex="1" parent="1">
          <mxGeometry x="120" y="480" width="240" height="30" as="geometry" />
        </mxCell>
        <mxCell id="xN9V8h1uKTJLU0mm6n82-7" value="&lt;font style=&quot;font-size: 15px;&quot;&gt;User embedding&lt;/font&gt;" style="rounded=0;whiteSpace=wrap;html=1;" vertex="1" parent="1">
          <mxGeometry x="410" y="480" width="240" height="30" as="geometry" />
        </mxCell>
        <mxCell id="xN9V8h1uKTJLU0mm6n82-8" value="" style="endArrow=none;html=1;rounded=0;endFill=0;" edge="1" parent="1">
          <mxGeometry width="50" height="50" relative="1" as="geometry">
            <mxPoint x="209.8" y="480" as="sourcePoint" />
            <mxPoint x="209.8" y="460" as="targetPoint" />
          </mxGeometry>
        </mxCell>
        <mxCell id="xN9V8h1uKTJLU0mm6n82-9" value="" style="endArrow=none;html=1;rounded=0;endFill=0;" edge="1" parent="1">
          <mxGeometry width="50" height="50" relative="1" as="geometry">
            <mxPoint x="269.84" y="480" as="sourcePoint" />
            <mxPoint x="269.84" y="460" as="targetPoint" />
          </mxGeometry>
        </mxCell>
        <mxCell id="xN9V8h1uKTJLU0mm6n82-10" value="" style="endArrow=none;html=1;rounded=0;endFill=0;" edge="1" parent="1">
          <mxGeometry width="50" height="50" relative="1" as="geometry">
            <mxPoint x="499.86" y="480" as="sourcePoint" />
            <mxPoint x="500.06" y="460" as="targetPoint" />
          </mxGeometry>
        </mxCell>
        <mxCell id="xN9V8h1uKTJLU0mm6n82-11" value="" style="endArrow=none;html=1;rounded=0;endFill=0;" edge="1" parent="1">
          <mxGeometry width="50" height="50" relative="1" as="geometry">
            <mxPoint x="559.8599999999999" y="480" as="sourcePoint" />
            <mxPoint x="560.06" y="460" as="targetPoint" />
          </mxGeometry>
        </mxCell>
        <mxCell id="xN9V8h1uKTJLU0mm6n82-12" value="L + R" style="rounded=0;whiteSpace=wrap;html=1;fillColor=#dae8fc;strokeColor=#6c8ebf;" vertex="1" parent="1">
          <mxGeometry x="150" y="380" width="80" height="30" as="geometry" />
        </mxCell>
        <mxCell id="xN9V8h1uKTJLU0mm6n82-13" value="L + R" style="rounded=0;whiteSpace=wrap;html=1;fillColor=#fff2cc;strokeColor=#d6b656;" vertex="1" parent="1">
          <mxGeometry x="440" y="380" width="80" height="30" as="geometry" />
        </mxCell>
        <mxCell id="xN9V8h1uKTJLU0mm6n82-14" value="L + R" style="rounded=0;whiteSpace=wrap;html=1;fillColor=#7EA6E0;strokeColor=#6c8ebf;" vertex="1" parent="1">
          <mxGeometry x="250" y="380" width="80" height="30" as="geometry" />
        </mxCell>
        <mxCell id="xN9V8h1uKTJLU0mm6n82-15" value="L + R" style="rounded=0;whiteSpace=wrap;html=1;fillColor=#FFD966;strokeColor=#d6b656;" vertex="1" parent="1">
          <mxGeometry x="540" y="380" width="80" height="30" as="geometry" />
        </mxCell>
        <mxCell id="xN9V8h1uKTJLU0mm6n82-16" value="" style="endArrow=none;html=1;rounded=0;endFill=0;" edge="1" parent="1">
          <mxGeometry width="50" height="50" relative="1" as="geometry">
            <mxPoint x="209.8" y="430" as="sourcePoint" />
            <mxPoint x="209.94" y="410" as="targetPoint" />
          </mxGeometry>
        </mxCell>
        <mxCell id="xN9V8h1uKTJLU0mm6n82-17" value="" style="endArrow=none;html=1;rounded=0;endFill=0;" edge="1" parent="1">
          <mxGeometry width="50" height="50" relative="1" as="geometry">
            <mxPoint x="269.84" y="430" as="sourcePoint" />
            <mxPoint x="269.97999999999996" y="410" as="targetPoint" />
          </mxGeometry>
        </mxCell>
        <mxCell id="xN9V8h1uKTJLU0mm6n82-18" value="" style="endArrow=none;html=1;rounded=0;endFill=0;" edge="1" parent="1">
          <mxGeometry width="50" height="50" relative="1" as="geometry">
            <mxPoint x="499.86" y="430" as="sourcePoint" />
            <mxPoint x="500" y="410" as="targetPoint" />
          </mxGeometry>
        </mxCell>
        <mxCell id="xN9V8h1uKTJLU0mm6n82-19" value="" style="endArrow=none;html=1;rounded=0;endFill=0;" edge="1" parent="1">
          <mxGeometry width="50" height="50" relative="1" as="geometry">
            <mxPoint x="559.8599999999999" y="430" as="sourcePoint" />
            <mxPoint x="560" y="410" as="targetPoint" />
          </mxGeometry>
        </mxCell>
        <mxCell id="xN9V8h1uKTJLU0mm6n82-20" value="L + R" style="rounded=0;whiteSpace=wrap;html=1;fillColor=#dae8fc;strokeColor=#6c8ebf;" vertex="1" parent="1">
          <mxGeometry x="170" y="330" width="60" height="30" as="geometry" />
        </mxCell>
        <mxCell id="xN9V8h1uKTJLU0mm6n82-21" value="L + R" style="rounded=0;whiteSpace=wrap;html=1;fillColor=#7EA6E0;strokeColor=#6c8ebf;" vertex="1" parent="1">
          <mxGeometry x="250" y="330" width="60" height="30" as="geometry" />
        </mxCell>
        <mxCell id="xN9V8h1uKTJLU0mm6n82-22" value="" style="endArrow=none;html=1;rounded=0;endFill=0;" edge="1" parent="1">
          <mxGeometry width="50" height="50" relative="1" as="geometry">
            <mxPoint x="209.52" y="380" as="sourcePoint" />
            <mxPoint x="209.66" y="360" as="targetPoint" />
          </mxGeometry>
        </mxCell>
        <mxCell id="xN9V8h1uKTJLU0mm6n82-23" value="" style="endArrow=none;html=1;rounded=0;endFill=0;" edge="1" parent="1">
          <mxGeometry width="50" height="50" relative="1" as="geometry">
            <mxPoint x="269.84" y="380" as="sourcePoint" />
            <mxPoint x="269.97999999999996" y="360" as="targetPoint" />
          </mxGeometry>
        </mxCell>
        <mxCell id="xN9V8h1uKTJLU0mm6n82-24" value="" style="endArrow=none;html=1;rounded=0;endFill=0;" edge="1" parent="1">
          <mxGeometry width="50" height="50" relative="1" as="geometry">
            <mxPoint x="499.86" y="380" as="sourcePoint" />
            <mxPoint x="500" y="360" as="targetPoint" />
          </mxGeometry>
        </mxCell>
        <mxCell id="xN9V8h1uKTJLU0mm6n82-25" value="" style="endArrow=none;html=1;rounded=0;endFill=0;" edge="1" parent="1">
          <mxGeometry width="50" height="50" relative="1" as="geometry">
            <mxPoint x="559.8599999999999" y="380" as="sourcePoint" />
            <mxPoint x="560" y="360" as="targetPoint" />
          </mxGeometry>
        </mxCell>
        <mxCell id="xN9V8h1uKTJLU0mm6n82-26" value="dot product for CTR" style="rounded=1;whiteSpace=wrap;html=1;" vertex="1" parent="1">
          <mxGeometry x="80" y="290" width="70" height="30" as="geometry" />
        </mxCell>
        <mxCell id="xN9V8h1uKTJLU0mm6n82-27" value="dot product for Final Score" style="rounded=1;whiteSpace=wrap;html=1;" vertex="1" parent="1">
          <mxGeometry x="340" y="180" width="90" height="30" as="geometry" />
        </mxCell>
        <mxCell id="xN9V8h1uKTJLU0mm6n82-28" value="L + R" style="rounded=0;whiteSpace=wrap;html=1;fillColor=#fff2cc;strokeColor=#d6b656;" vertex="1" parent="1">
          <mxGeometry x="460" y="330" width="60" height="30" as="geometry" />
        </mxCell>
        <mxCell id="xN9V8h1uKTJLU0mm6n82-29" value="L + R" style="rounded=0;whiteSpace=wrap;html=1;fillColor=#FFD966;strokeColor=#d6b656;" vertex="1" parent="1">
          <mxGeometry x="540" y="330" width="60" height="30" as="geometry" />
        </mxCell>
        <mxCell id="xN9V8h1uKTJLU0mm6n82-30" value="&amp;nbsp; &amp;nbsp; &amp;nbsp; &amp;nbsp; &amp;nbsp; &amp;nbsp; &amp;nbsp; &amp;nbsp; &amp;nbsp; &amp;nbsp; &amp;nbsp; &amp;nbsp; &amp;nbsp; &amp;nbsp; &amp;nbsp; &amp;nbsp; &amp;nbsp; &amp;nbsp; &amp;nbsp; &amp;nbsp; &amp;nbsp;concat&amp;nbsp;" style="rounded=1;whiteSpace=wrap;html=1;fillColor=none;" vertex="1" parent="1">
          <mxGeometry x="460" y="230" width="180" height="50" as="geometry" />
        </mxCell>
        <mxCell id="xN9V8h1uKTJLU0mm6n82-31" value="" style="endArrow=classicThin;html=1;rounded=0;exitX=0.5;exitY=0;exitDx=0;exitDy=0;endFill=1;entryX=1;entryY=0.5;entryDx=0;entryDy=0;" edge="1" parent="1" source="xN9V8h1uKTJLU0mm6n82-20" target="xN9V8h1uKTJLU0mm6n82-26">
          <mxGeometry width="50" height="50" relative="1" as="geometry">
            <mxPoint x="160" y="265" as="sourcePoint" />
            <mxPoint x="115" y="320" as="targetPoint" />
          </mxGeometry>
        </mxCell>
        <mxCell id="xN9V8h1uKTJLU0mm6n82-32" value="" style="endArrow=classicThin;html=1;rounded=0;entryX=1;entryY=0.5;entryDx=0;entryDy=0;endFill=1;exitX=0.5;exitY=0;exitDx=0;exitDy=0;" edge="1" parent="1" source="xN9V8h1uKTJLU0mm6n82-28" target="xN9V8h1uKTJLU0mm6n82-26">
          <mxGeometry width="50" height="50" relative="1" as="geometry">
            <mxPoint x="410" y="320" as="sourcePoint" />
            <mxPoint x="270" y="275" as="targetPoint" />
          </mxGeometry>
        </mxCell>
        <mxCell id="xN9V8h1uKTJLU0mm6n82-33" value="L + R" style="rounded=0;whiteSpace=wrap;html=1;fillColor=#dae8fc;strokeColor=#6c8ebf;" vertex="1" parent="1">
          <mxGeometry x="180" y="180" width="60" height="30" as="geometry" />
        </mxCell>
        <mxCell id="xN9V8h1uKTJLU0mm6n82-34" value="L + R" style="rounded=0;whiteSpace=wrap;html=1;fillColor=#7EA6E0;strokeColor=#6c8ebf;" vertex="1" parent="1">
          <mxGeometry x="240" y="180" width="60" height="30" as="geometry" />
        </mxCell>
        <mxCell id="xN9V8h1uKTJLU0mm6n82-35" value="L + R" style="rounded=0;whiteSpace=wrap;html=1;fillColor=#fff2cc;strokeColor=#d6b656;" vertex="1" parent="1">
          <mxGeometry x="470" y="240" width="60" height="30" as="geometry" />
        </mxCell>
        <mxCell id="xN9V8h1uKTJLU0mm6n82-36" value="L + R" style="rounded=0;whiteSpace=wrap;html=1;fillColor=#FFD966;strokeColor=#d6b656;" vertex="1" parent="1">
          <mxGeometry x="530" y="240" width="60" height="30" as="geometry" />
        </mxCell>
        <mxCell id="xN9V8h1uKTJLU0mm6n82-37" value="" style="endArrow=none;html=1;rounded=0;entryX=0.447;entryY=1.017;entryDx=0;entryDy=0;entryPerimeter=0;endFill=0;" edge="1" parent="1">
          <mxGeometry width="50" height="50" relative="1" as="geometry">
            <mxPoint x="269.83000000000004" y="330" as="sourcePoint" />
            <mxPoint x="269.94" y="281" as="targetPoint" />
          </mxGeometry>
        </mxCell>
        <mxCell id="xN9V8h1uKTJLU0mm6n82-38" value="" style="endArrow=none;html=1;rounded=0;entryX=0.447;entryY=1.017;entryDx=0;entryDy=0;entryPerimeter=0;dashed=1;endFill=0;" edge="1" parent="1">
          <mxGeometry width="50" height="50" relative="1" as="geometry">
            <mxPoint x="499.83" y="329" as="sourcePoint" />
            <mxPoint x="499.94" y="280" as="targetPoint" />
          </mxGeometry>
        </mxCell>
        <mxCell id="xN9V8h1uKTJLU0mm6n82-39" value="" style="endArrow=none;html=1;rounded=0;entryX=0.447;entryY=1.017;entryDx=0;entryDy=0;entryPerimeter=0;endFill=0;" edge="1" parent="1">
          <mxGeometry width="50" height="50" relative="1" as="geometry">
            <mxPoint x="559.83" y="330" as="sourcePoint" />
            <mxPoint x="559.94" y="281" as="targetPoint" />
          </mxGeometry>
        </mxCell>
        <mxCell id="xN9V8h1uKTJLU0mm6n82-40" value="" style="endArrow=none;html=1;rounded=0;entryX=0.447;entryY=1.017;entryDx=0;entryDy=0;entryPerimeter=0;dashed=1;endFill=0;" edge="1" parent="1">
          <mxGeometry width="50" height="50" relative="1" as="geometry">
            <mxPoint x="209.83" y="330" as="sourcePoint" />
            <mxPoint x="209.94" y="281" as="targetPoint" />
          </mxGeometry>
        </mxCell>
        <mxCell id="xN9V8h1uKTJLU0mm6n82-41" value="" style="endArrow=classicThin;html=1;rounded=0;entryX=0;entryY=0.5;entryDx=0;entryDy=0;exitX=1;exitY=0.5;exitDx=0;exitDy=0;endFill=1;" edge="1" parent="1" source="xN9V8h1uKTJLU0mm6n82-34" target="xN9V8h1uKTJLU0mm6n82-27">
          <mxGeometry width="50" height="50" relative="1" as="geometry">
            <mxPoint x="310" y="195" as="sourcePoint" />
            <mxPoint x="305" y="170" as="targetPoint" />
          </mxGeometry>
        </mxCell>
        <mxCell id="xN9V8h1uKTJLU0mm6n82-42" value="" style="endArrow=classicThin;html=1;rounded=0;entryX=1;entryY=0.5;entryDx=0;entryDy=0;exitX=0;exitY=0.5;exitDx=0;exitDy=0;endFill=1;" edge="1" parent="1" source="xN9V8h1uKTJLU0mm6n82-49" target="xN9V8h1uKTJLU0mm6n82-27">
          <mxGeometry width="50" height="50" relative="1" as="geometry">
            <mxPoint x="370" y="300" as="sourcePoint" />
            <mxPoint x="420" y="250" as="targetPoint" />
          </mxGeometry>
        </mxCell>
        <mxCell id="xN9V8h1uKTJLU0mm6n82-43" value="L + R" style="rounded=0;whiteSpace=wrap;html=1;fillColor=#dae8fc;strokeColor=#6c8ebf;" vertex="1" parent="1">
          <mxGeometry x="180" y="240" width="60" height="30" as="geometry" />
        </mxCell>
        <mxCell id="xN9V8h1uKTJLU0mm6n82-44" value="L + R" style="rounded=0;whiteSpace=wrap;html=1;fillColor=#7EA6E0;strokeColor=#6c8ebf;" vertex="1" parent="1">
          <mxGeometry x="240" y="240" width="60" height="30" as="geometry" />
        </mxCell>
        <mxCell id="xN9V8h1uKTJLU0mm6n82-45" value="dot product for CTCVR" style="rounded=1;whiteSpace=wrap;html=1;" vertex="1" parent="1">
          <mxGeometry x="350" y="240" width="70" height="30" as="geometry" />
        </mxCell>
        <mxCell id="xN9V8h1uKTJLU0mm6n82-46" value="" style="endArrow=classicThin;html=1;rounded=0;exitX=1;exitY=0.5;exitDx=0;exitDy=0;entryX=0;entryY=0.5;entryDx=0;entryDy=0;endFill=1;" edge="1" parent="1" source="xN9V8h1uKTJLU0mm6n82-1" target="xN9V8h1uKTJLU0mm6n82-45">
          <mxGeometry width="50" height="50" relative="1" as="geometry">
            <mxPoint x="380" y="290" as="sourcePoint" />
            <mxPoint x="430" y="240" as="targetPoint" />
          </mxGeometry>
        </mxCell>
        <mxCell id="xN9V8h1uKTJLU0mm6n82-47" value="" style="endArrow=classicThin;html=1;rounded=0;exitX=0;exitY=0.5;exitDx=0;exitDy=0;entryX=1;entryY=0.5;entryDx=0;entryDy=0;endFill=1;" edge="1" parent="1" source="xN9V8h1uKTJLU0mm6n82-30" target="xN9V8h1uKTJLU0mm6n82-45">
          <mxGeometry width="50" height="50" relative="1" as="geometry">
            <mxPoint x="380" y="290" as="sourcePoint" />
            <mxPoint x="430" y="240" as="targetPoint" />
          </mxGeometry>
        </mxCell>
        <mxCell id="xN9V8h1uKTJLU0mm6n82-48" value="" style="endArrow=none;html=1;rounded=0;dashed=1;endFill=0;" edge="1" parent="1">
          <mxGeometry width="50" height="50" relative="1" as="geometry">
            <mxPoint x="239.59" y="230" as="sourcePoint" />
            <mxPoint x="240" y="210" as="targetPoint" />
          </mxGeometry>
        </mxCell>
        <mxCell id="xN9V8h1uKTJLU0mm6n82-49" value="a(L + R)" style="rounded=0;whiteSpace=wrap;html=1;fillColor=#fff2cc;strokeColor=#d6b656;" vertex="1" parent="1">
          <mxGeometry x="470" y="180" width="60" height="30" as="geometry" />
        </mxCell>
        <mxCell id="xN9V8h1uKTJLU0mm6n82-50" value="b(L + R)" style="rounded=0;whiteSpace=wrap;html=1;fillColor=#FFD966;strokeColor=#d6b656;" vertex="1" parent="1">
          <mxGeometry x="530" y="180" width="60" height="30" as="geometry" />
        </mxCell>
        <mxCell id="xN9V8h1uKTJLU0mm6n82-51" value="" style="endArrow=none;html=1;rounded=0;dashed=1;endFill=0;" edge="1" parent="1">
          <mxGeometry width="50" height="50" relative="1" as="geometry">
            <mxPoint x="530" y="230" as="sourcePoint" />
            <mxPoint x="530" y="210" as="targetPoint" />
          </mxGeometry>
        </mxCell>
        <mxCell id="xN9V8h1uKTJLU0mm6n82-52" value="" style="endArrow=none;html=1;rounded=0;dashed=1;endFill=0;exitX=0.75;exitY=0;exitDx=0;exitDy=0;" edge="1" parent="1" source="xN9V8h1uKTJLU0mm6n82-12">
          <mxGeometry width="50" height="50" relative="1" as="geometry">
            <mxPoint x="219.83" y="340" as="sourcePoint" />
            <mxPoint x="270" y="360" as="targetPoint" />
          </mxGeometry>
        </mxCell>
        <mxCell id="xN9V8h1uKTJLU0mm6n82-53" value="" style="endArrow=none;html=1;rounded=0;dashed=1;dashPattern=1 2;endFill=0;exitX=0.75;exitY=0;exitDx=0;exitDy=0;" edge="1" parent="1">
          <mxGeometry width="50" height="50" relative="1" as="geometry">
            <mxPoint x="210" y="430" as="sourcePoint" />
            <mxPoint x="270" y="410" as="targetPoint" />
          </mxGeometry>
        </mxCell>
        <mxCell id="xN9V8h1uKTJLU0mm6n82-54" value="" style="endArrow=none;html=1;rounded=0;dashed=1;endFill=0;exitX=0.75;exitY=0;exitDx=0;exitDy=0;" edge="1" parent="1">
          <mxGeometry width="50" height="50" relative="1" as="geometry">
            <mxPoint x="210" y="480" as="sourcePoint" />
            <mxPoint x="270" y="460" as="targetPoint" />
          </mxGeometry>
        </mxCell>
        <mxCell id="xN9V8h1uKTJLU0mm6n82-55" value="" style="endArrow=none;html=1;rounded=0;dashed=1;endFill=0;exitX=0.75;exitY=0;exitDx=0;exitDy=0;" edge="1" parent="1">
          <mxGeometry width="50" height="50" relative="1" as="geometry">
            <mxPoint x="210" y="430" as="sourcePoint" />
            <mxPoint x="270" y="410" as="targetPoint" />
          </mxGeometry>
        </mxCell>
        <mxCell id="xN9V8h1uKTJLU0mm6n82-56" value="" style="endArrow=none;html=1;rounded=0;dashed=1;endFill=0;exitX=0.75;exitY=0;exitDx=0;exitDy=0;" edge="1" parent="1">
          <mxGeometry width="50" height="50" relative="1" as="geometry">
            <mxPoint x="500" y="380" as="sourcePoint" />
            <mxPoint x="560" y="360" as="targetPoint" />
          </mxGeometry>
        </mxCell>
        <mxCell id="xN9V8h1uKTJLU0mm6n82-57" value="" style="endArrow=none;html=1;rounded=0;dashed=1;endFill=0;exitX=0.75;exitY=0;exitDx=0;exitDy=0;" edge="1" parent="1">
          <mxGeometry width="50" height="50" relative="1" as="geometry">
            <mxPoint x="500" y="430" as="sourcePoint" />
            <mxPoint x="560" y="410" as="targetPoint" />
          </mxGeometry>
        </mxCell>
        <mxCell id="xN9V8h1uKTJLU0mm6n82-58" value="" style="endArrow=none;html=1;rounded=0;dashed=1;endFill=0;exitX=0.75;exitY=0;exitDx=0;exitDy=0;" edge="1" parent="1">
          <mxGeometry width="50" height="50" relative="1" as="geometry">
            <mxPoint x="500" y="480" as="sourcePoint" />
            <mxPoint x="560" y="460" as="targetPoint" />
          </mxGeometry>
        </mxCell>
        <mxCell id="xN9V8h1uKTJLU0mm6n82-59" value="" style="endArrow=classic;html=1;rounded=0;exitX=0;exitY=0;exitDx=0;exitDy=0;" edge="1" parent="1" source="xN9V8h1uKTJLU0mm6n82-34">
          <mxGeometry width="50" height="50" relative="1" as="geometry">
            <mxPoint x="245" y="150" as="sourcePoint" />
            <mxPoint x="240" y="160" as="targetPoint" />
          </mxGeometry>
        </mxCell>
        <mxCell id="xN9V8h1uKTJLU0mm6n82-61" value="Item embedding Index" style="rounded=1;whiteSpace=wrap;html=1;" vertex="1" parent="1">
          <mxGeometry x="180" y="110" width="130" height="50" as="geometry" />
        </mxCell>
        <mxCell id="xN9V8h1uKTJLU0mm6n82-62" value="DNN" style="rounded=1;whiteSpace=wrap;html=1;" vertex="1" parent="1">
          <mxGeometry x="660" y="310" width="90" height="60" as="geometry" />
        </mxCell>
        <mxCell id="xN9V8h1uKTJLU0mm6n82-63" value="" style="endArrow=classic;html=1;rounded=0;exitX=0.5;exitY=0;exitDx=0;exitDy=0;entryX=1;entryY=0.5;entryDx=0;entryDy=0;" edge="1" parent="1" source="xN9V8h1uKTJLU0mm6n82-62" target="xN9V8h1uKTJLU0mm6n82-50">
          <mxGeometry width="50" height="50" relative="1" as="geometry">
            <mxPoint x="700" y="270" as="sourcePoint" />
            <mxPoint x="750" y="220" as="targetPoint" />
            <Array as="points">
              <mxPoint x="705" y="195" />
            </Array>
          </mxGeometry>
        </mxCell>
        <mxCell id="xN9V8h1uKTJLU0mm6n82-64" value="" style="endArrow=classic;html=1;rounded=0;entryX=0.5;entryY=1;entryDx=0;entryDy=0;exitX=1;exitY=0.5;exitDx=0;exitDy=0;" edge="1" parent="1" source="xN9V8h1uKTJLU0mm6n82-7" target="xN9V8h1uKTJLU0mm6n82-62">
          <mxGeometry width="50" height="50" relative="1" as="geometry">
            <mxPoint x="440" y="410" as="sourcePoint" />
            <mxPoint x="490" y="360" as="targetPoint" />
            <Array as="points">
              <mxPoint x="705" y="495" />
            </Array>
          </mxGeometry>
        </mxCell>
      </root>
    </mxGraphModel>
  </diagram>
</mxfile>
